<svg width="37" height="41" viewBox="0 0 37 41" fill="none" xmlns="http://www.w3.org/2000/svg">
<path d="M19.0957 33.1501H22.0359V30.798C22.0359 30.462 21.7839 30.21 21.4479 30.21H19.0957V33.1501Z" fill="black"/>
<path d="M17.8914 33.1501V30.21H15.5392C15.2031 30.21 14.9512 30.462 14.9512 30.798V33.1501H17.8914Z" fill="black"/>
<path d="M17.8914 34.354H14.9512V36.7062C14.9512 37.0422 15.2031 37.2942 15.5392 37.2942H17.8914V34.354Z" fill="black"/>
<path d="M19.0957 34.354V37.2942H21.4479C21.7839 37.2942 22.0359 37.0422 22.0359 36.7062V34.354H19.0957Z" fill="black"/>
<path d="M35.7764 0.829221C35.5295 0.609743 35.2277 0.5 34.8985 0.5H26.7229C26.3114 0.5 26.0096 0.637164 25.7627 0.884078C25.5158 1.13099 25.406 1.46022 25.406 1.81687V16.0007C25.406 16.0556 25.3512 16.1104 25.2689 16.083L19.1783 13.751C18.7394 13.5864 18.2456 13.5864 17.8066 13.751L11.7161 16.083C11.6612 16.1104 11.5789 16.0556 11.5789 16.0007V1.89917C11.5789 1.51508 11.4417 1.10356 11.1399 0.85665C10.893 0.637171 10.5912 0.527428 10.262 0.527428H2.08642C1.67489 0.527428 1.37311 0.664609 1.1262 0.911523C0.879284 1.15844 0.769531 1.48764 0.769531 1.8443V39.1831C0.769531 39.5398 0.879284 39.869 1.1262 40.1159C1.37311 40.3628 1.67489 40.5 2.08642 40.5H10.262C10.6187 40.5 10.9479 40.3628 11.1948 40.1159C11.4417 39.869 11.5789 39.5398 11.5789 39.1831V26.5082C11.5789 26.4808 11.6063 26.4259 11.6338 26.4259L17.8066 24.0665C18.2456 23.9019 18.7394 23.9019 19.1783 24.0665L25.3512 26.4259C25.3786 26.4534 25.406 26.4808 25.406 26.5082V39.1831C25.406 39.5398 25.5158 39.869 25.7627 40.1159C26.0096 40.3628 26.3114 40.5 26.7229 40.5H34.8985C35.2552 40.5 35.5844 40.3628 35.8313 40.1159C36.0782 39.869 36.2153 39.5398 36.2153 39.1831V1.87174C36.1879 1.48765 36.0508 1.10357 35.7764 0.829221Z" fill="#3F37C9"/>
</svg>
