<svg width="57" height="61" viewBox="0 0 57 61" fill="none" xmlns="http://www.w3.org/2000/svg">
<path d="M29.0957 43.1501H32.0359V40.798C32.0359 40.462 31.7839 40.21 31.4479 40.21H29.0957V43.1501Z" fill="black"/>
<path d="M27.8914 43.1501V40.21H25.5392C25.2031 40.21 24.9512 40.462 24.9512 40.798V43.1501H27.8914Z" fill="black"/>
<path d="M27.8914 44.354H24.9512V46.7062C24.9512 47.0422 25.2031 47.2942 25.5392 47.2942H27.8914V44.354Z" fill="black"/>
<path d="M29.0957 44.354V47.2942H31.4479C31.7839 47.2942 32.0359 47.0422 32.0359 46.7062V44.354H29.0957Z" fill="black"/>
<path d="M45.7764 10.8292C45.5295 10.6097 45.2277 10.5 44.8985 10.5H36.7229C36.3114 10.5 36.0096 10.6372 35.7627 10.8841C35.5158 11.131 35.406 11.4602 35.406 11.8169V26.0007C35.406 26.0556 35.3512 26.1104 35.2689 26.083L29.1783 23.751C28.7394 23.5864 28.2456 23.5864 27.8066 23.751L21.7161 26.083C21.6612 26.1104 21.5789 26.0556 21.5789 26.0007V11.8992C21.5789 11.5151 21.4417 11.1036 21.1399 10.8566C20.893 10.6372 20.5912 10.5274 20.262 10.5274H12.0864C11.6749 10.5274 11.3731 10.6646 11.1262 10.9115C10.8793 11.1584 10.7695 11.4876 10.7695 11.8443V49.1831C10.7695 49.5398 10.8793 49.869 11.1262 50.1159C11.3731 50.3628 11.6749 50.5 12.0864 50.5H20.262C20.6187 50.5 20.9479 50.3628 21.1948 50.1159C21.4417 49.869 21.5789 49.5398 21.5789 49.1831V36.5082C21.5789 36.4808 21.6063 36.4259 21.6338 36.4259L27.8066 34.0665C28.2456 33.9019 28.7394 33.9019 29.1783 34.0665L35.3512 36.4259C35.3786 36.4534 35.406 36.4808 35.406 36.5082V49.1831C35.406 49.5398 35.5158 49.869 35.7627 50.1159C36.0096 50.3628 36.3114 50.5 36.7229 50.5H44.8985C45.2552 50.5 45.5844 50.3628 45.8313 50.1159C46.0782 49.869 46.2153 49.5398 46.2153 49.1831V11.8717C46.1879 11.4877 46.0508 11.1036 45.7764 10.8292Z" fill="black"/>
</svg>
