<svg width="61" height="60" viewBox="0 0 61 60" fill="none" xmlns="http://www.w3.org/2000/svg">
<path d="M10.585 14.4445H19.4739M19.4739 14.4445C19.4739 16.8991 21.4636 18.8889 23.9182 18.8889C26.3728 18.8889 28.3627 16.8991 28.3627 14.4445M19.4739 14.4445C19.4739 11.9899 21.4636 10 23.9182 10C26.3728 10 28.3627 11.9899 28.3627 14.4445M50.585 14.4445H28.3627M10.585 30H37.2516M37.2516 30C37.2516 32.4546 39.2415 34.4444 41.6961 34.4444C44.1507 34.4444 46.1405 32.4546 46.1405 30M37.2516 30C37.2516 27.5454 39.2415 25.5555 41.6961 25.5555C44.1507 25.5555 46.1405 27.5454 46.1405 30M50.585 30H46.1405M10.585 45.5556H15.0294M15.0294 45.5556C15.0294 48.0102 17.0193 50 19.4739 50C21.9285 50 23.9183 48.0102 23.9183 45.5556M15.0294 45.5556C15.0294 43.101 17.0193 41.1111 19.4739 41.1111C21.9285 41.1111 23.9183 43.101 23.9183 45.5556M50.585 45.5556H23.9183" stroke="black" stroke-width="3.33333" stroke-linecap="round"/>
</svg>
